<svg width="22" height="12" viewBox="0 0 22 12" fill="none" xmlns="http://www.w3.org/2000/svg">
<path d="M0 6C0 2.68629 2.68629 0 6 0H16C19.3137 0 22 2.68629 22 6C22 9.31371 19.3137 12 16 12H6C2.68629 12 0 9.31371 0 6Z" fill="#F0504D"/>
<path d="M10.2936 2.72727H11.1743V7.54261C11.1743 8.03977 11.0571 8.48366 10.8228 8.87429C10.5908 9.26255 10.2629 9.56913 9.8391 9.79403C9.41533 10.0166 8.91817 10.1278 8.34762 10.1278C7.77707 10.1278 7.27991 10.0166 6.85614 9.79403C6.43237 9.56913 6.1033 9.26255 5.86893 8.87429C5.63692 8.48366 5.52092 8.03977 5.52092 7.54261V2.72727H6.4016V7.47159C6.4016 7.8267 6.47972 8.14276 6.63597 8.41974C6.79222 8.69437 7.01476 8.91098 7.30359 9.0696C7.59478 9.22585 7.94279 9.30398 8.34762 9.30398C8.75245 9.30398 9.10046 9.22585 9.39165 9.0696C9.68285 8.91098 9.90539 8.69437 10.0593 8.41974C10.2155 8.14276 10.2936 7.8267 10.2936 7.47159V2.72727Z" fill="white"/>
<path d="M12.533 10V2.72727H14.9904C15.561 2.72727 16.0273 2.83026 16.3896 3.03622C16.7541 3.23982 17.024 3.51562 17.1992 3.86364C17.3744 4.21165 17.462 4.59991 17.462 5.02841C17.462 5.45691 17.3744 5.84635 17.1992 6.19673C17.0264 6.54711 16.7589 6.82647 16.3967 7.0348C16.0344 7.24077 15.5704 7.34375 15.0046 7.34375H13.2433V6.5625H14.9762C15.3668 6.5625 15.6805 6.49503 15.9173 6.36009C16.154 6.22514 16.3256 6.04285 16.4322 5.81321C16.5411 5.5812 16.5955 5.3196 16.5955 5.02841C16.5955 4.73722 16.5411 4.4768 16.4322 4.24716C16.3256 4.01752 16.1528 3.83759 15.9137 3.70739C15.6746 3.57481 15.3574 3.50852 14.962 3.50852H13.4137V10H12.533Z" fill="white"/>
</svg>
