<svg width="47" height="47" viewBox="0 0 47 47" fill="none" xmlns="http://www.w3.org/2000/svg">
<circle cx="23.5" cy="23.5" r="23" fill="white" stroke="#1DA1F2"/>
<path d="M22.5973 15.3699L22.9508 15.7235L23.3044 15.3699L23.829 14.8454C25.3112 13.3631 27.2833 12.5 29.5082 12.5C31.606 12.5 33.7081 13.366 35.1874 14.8454C38.2709 17.9288 38.2709 23.1204 35.1874 26.2038L23.682 37.7092C23.342 37.9327 23.1848 37.9918 22.9508 37.9918C22.8124 37.9918 22.7195 37.9693 22.6457 37.9365C22.5697 37.9028 22.488 37.8464 22.3863 37.7448L10.8454 26.2038C9.36601 24.7245 8.5 22.6224 8.5 20.5246C8.5 18.4268 9.36601 16.3247 10.8454 14.8454C12.3306 13.3601 14.3038 12.5 16.3934 12.5C18.4913 12.5 20.5933 13.366 22.0727 14.8454L22.5973 15.3699Z" stroke="#1DA1F2"/>
</svg>
